# xmcd
#
# Track frame offsets:
#	150
#	18486
#	43296
#	60892
#	74636
#	89283
#	116560
#	130714
#	147527
#	167565
#	180761
#	200601
#	222515
#	243295
#	263638
# Disc length: 3878 seconds
# Revision: 1
# Processed by: cddbd v1.5.2PL0 Copyright (c) Steve Scherf et al.
#
# Submitted via: libkcddb 0.31
#
DISCID=d70f240f
DTITLE=Zeichen der Zeit - David Generation
DYEAR=2006
DGENRE=Hip-Hop
TTITLE0=Ich trage dich
TTITLE1=Fuerchte dich nicht
TTITLE2=Worte
TTITLE3=Steine ins Rollen
TTITLE4=Wir marschieren
TTITLE5=Es ist vorbei
TTITLE6=Specialize in Love
TTITLE7=Du wirst mich finden
TTITLE8=Wenn Liebe nicht mehr reicht
TTITLE9=The Truth
TTITLE10=U said
TTITLE11=What if
TTITLE12=GOTT ist anders
TTITLE13=JESUS sagt
TTITLE14=Ausser Deiner Liebe
EXTD=
EXTT0=
EXTT1=
EXTT2=
EXTT3=
EXTT4=
EXTT5=
EXTT6=
EXTT7=
EXTT8=
EXTT9=
EXTT10=
EXTT11=
EXTT12=
EXTT13=
EXTT14=
PLAYORDER=
